<?xml version="1.0" encoding="UTF-8"?>
<svg width="80px" height="80px" viewBox="0 0 80 80" version="1.1" xmlns="http://www.w3.org/2000/svg" xmlns:xlink="http://www.w3.org/1999/xlink">
    <title>279577F4-1157-4A6D-AFC6-D91FBC13A64A</title>
    <g id="Designer-Variation-(Website-builder)" stroke="none" stroke-width="1" fill="none" fill-rule="evenodd">
        <g id="1HomeDevs" transform="translate(-740.000000, -2424.000000)">
            <g id="WhatCanYouDoSection" transform="translate(120.000000, 2314.000000)">
                <g id="IconSolidMVP" transform="translate(620.000000, 110.000000)">
                    <rect id="Rectangle" fill="#1967FA" x="0" y="0" width="80" height="80"></rect>
                    <g id="Group-20" transform="translate(20.000000, 20.000000)" fill="#FFFFFF" fill-rule="nonzero">
                        <path d="M38,0 L2,0 C0.8954305,0 0,0.8954305 0,2 L0,38 C0,39.1045695 0.8954305,40 2,40 L38,40 C39.1045695,40 40,39.1045695 40,38 L40,2 C40,0.8954305 39.1045695,0 38,0 Z M38.6666667,38 C38.6666667,38.3681898 38.3681898,38.6666667 38,38.6666667 L2,38.6666667 C1.63181017,38.6666667 1.33333333,38.3681898 1.33333333,38 L1.33333333,6.66666667 L38.6666667,6.66666667 L38.6666667,38 Z M1.33333333,5.33333333 L1.33333333,2 C1.33333333,1.63181017 1.63181017,1.33333333 2,1.33333333 L38,1.33333333 C38.3681898,1.33333333 38.6666667,1.63181017 38.6666667,2 L38.6666667,5.33333333 L1.33333333,5.33333333 Z" id="Shape"></path>
                        <polygon id="Path" points="9.54978836 13 7 15.5862791 9.54978836 18.1725581 10.522381 17.1860465 8.94518519 15.5862791 10.522381 13.9865116"></polygon>
                        <polygon id="Path" points="16.0250265 18.1725581 18.5748148 15.5862791 16.0250265 13 15.0524339 13.9865116 16.6296296 15.5862791 15.0524339 17.1860465"></polygon>
                        <polygon id="Path" points="9.54978836 27.5581395 7 30.1444186 9.54978836 32.7306977 10.522381 31.744186 8.94518519 30.1444186 10.522381 28.5446512"></polygon>
                        <polygon id="Path" points="15.0524339 28.5446512 16.6296296 30.1444186 15.0524339 31.744186 16.0250265 32.7306977 18.5748148 30.1444186 16.0250265 27.5581395"></polygon>
                        <rect id="Rectangle" x="11.411746" y="14.8886047" width="2.75132275" height="1.39534884"></rect>
                        <polygon id="Rectangle" transform="translate(12.787468, 30.143844) rotate(-71.547000) translate(-12.787468, -30.143844) " points="10.5871458 29.4647188 14.9936986 29.4460247 14.9877903 30.8229697 10.5812376 30.8416639"></polygon>
                        <rect id="Rectangle" x="12.7874074" y="20.7723256" width="2.75132275" height="1.39534884"></rect>
                        <rect id="Rectangle" x="16.9143915" y="20.7723256" width="15.8201058" height="1.39534884"></rect>
                        <rect id="Rectangle" x="12.7874074" y="23.5630233" width="2.75132275" height="1.39534884"></rect>
                        <rect id="Rectangle" x="16.9143915" y="23.5630233" width="15.8201058" height="1.39534884"></rect>
                        <rect id="Rectangle" x="2.66666667" y="2.66666667" width="1.33333333" height="1.33333333"></rect>
                        <rect id="Rectangle" x="5.33333333" y="2.66666667" width="1.33333333" height="1.33333333"></rect>
                        <rect id="Rectangle" x="8" y="2.66666667" width="1.33333333" height="1.33333333"></rect>
                    </g>
                </g>
            </g>
        </g>
    </g>
</svg>