<?xml version="1.0" encoding="UTF-8"?>
<svg width="120px" height="120px" viewBox="0 0 120 120" version="1.1" xmlns="http://www.w3.org/2000/svg" xmlns:xlink="http://www.w3.org/1999/xlink">
    <title>D321D266-EE15-4ACB-AA02-286061761452</title>
    <g id="Designer-Variation-(Website-builder)" stroke="none" stroke-width="1" fill="none" fill-rule="evenodd">
        <g id="1HomeDevs" transform="translate(-554.000000, -1294.000000)">
            <g id="FeaturesSection" transform="translate(120.000000, 1134.000000)">
                <g id="Features" transform="translate(40.000000, 120.000000)">
                    <g id="IconSolidFlexibleResponsive" transform="translate(394.000000, 40.000000)">
                        <rect id="Rectangle" fill="#1967FA" x="0" y="0" width="120" height="120"></rect>
                        <g id="responsive-website" transform="translate(40.000000, 40.000000)" fill="#FFFFFF" fill-rule="nonzero">
                            <polygon id="Path" points="2.5 2.5 3.75 2.5 3.75 3.75 2.5 3.75"></polygon>
                            <polygon id="Path" points="5 2.5 6.25 2.5 6.25 3.75 5 3.75"></polygon>
                            <polygon id="Path" points="7.5 2.5 8.75 2.5 8.75 3.75 7.5 3.75"></polygon>
                            <polygon id="Path" points="27.5 20.625 28.75 20.625 28.75 21.875 27.5 21.875"></polygon>
                            <polygon id="Path" points="30 20.625 31.25 20.625 31.25 21.875 30 21.875"></polygon>
                            <polygon id="Path" points="13.75 12.5 15 12.5 15 13.75 13.75 13.75"></polygon>
                            <polygon id="Path" points="16.25 12.5 17.5 12.5 17.5 13.75 16.25 13.75"></polygon>
                            <polygon id="Path" points="18.75 12.5 20 12.5 20 13.75 18.75 13.75"></polygon>
                            <path d="M0,0 L0,32.5 L11.25,32.5 L11.25,38.75 L25,38.75 L25,40 L40,40 L40,0 L0,0 Z M38.75,23.125 L26.25,23.125 L26.25,19.375 L38.75,19.375 L38.75,23.125 Z M35,15 L12.5,15 L12.5,11.25 L35,11.25 L35,15 Z M38.75,18.125 L36.25,18.125 L36.25,10 L11.25,10 L11.25,18.75 L12.5,18.75 L12.5,16.25 L35,16.25 L35,18.125 L25,18.125 L25,26.25 L26.25,26.25 L26.25,24.375 L38.75,24.375 L38.75,38.75 L26.25,38.75 L26.25,35 L25,35 L25,37.5 L12.5,37.5 L12.5,27.5 L11.25,27.5 L11.25,31.25 L1.25,31.25 L1.25,6.25 L38.75,6.25 L38.75,18.125 Z M38.75,5 L1.25,5 L1.25,1.25 L38.75,1.25 L38.75,5 Z" id="Shape"></path>
                            <polygon id="Path" points="14.8168945 17.6831055 13.9331055 18.5668945 15.9912109 20.625 5 20.625 5 21.875 19.0087891 21.875"></polygon>
                            <polygon id="Path" points="9.81689453 27.6831055 7.75878906 25.625 18.75 25.625 18.75 24.375 4.74121094 24.375 8.93310547 28.5668945"></polygon>
                            <polygon id="Path" points="18.75 29.375 32.7587891 29.375 28.5668945 25.1831055 27.6831055 26.0668945 29.7412109 28.125 18.75 28.125"></polygon>
                            <polygon id="Path" points="22.6831055 36.0668945 23.5668945 35.1831055 21.5087891 33.125 32.5 33.125 32.5 31.875 18.4912109 31.875"></polygon>
                        </g>
                    </g>
                </g>
            </g>
        </g>
    </g>
</svg>