<?xml version="1.0" encoding="UTF-8"?>
<svg width="21px" height="20px" viewBox="0 0 21 20" version="1.1" xmlns="http://www.w3.org/2000/svg" xmlns:xlink="http://www.w3.org/1999/xlink">
    <title>AE08CBFF-F1AC-4176-9BC5-A43B9FEB6ED9</title>
    <g id="Page-1" stroke="none" stroke-width="1" fill="none" fill-rule="evenodd">
        <g id="Freehand-landing-page" transform="translate(-161.000000, -4023.000000)" fill="#0D0D0D" fill-rule="nonzero">
            <g id="Footer" transform="translate(0.000000, 3720.000000)">
                <g id="Group-11" transform="translate(152.000000, 294.000000)">
                    <path d="M19.0078,13.8739 C16.1685,13.8739 13.8783,16.1641 13.8783,19.0033 C13.8783,21.8426 16.1685,24.1328 19.0078,24.1328 C21.8471,24.1328 24.1373,21.8426 24.1373,19.0033 C24.1373,16.1641 21.8471,13.8739 19.0078,13.8739 Z M19.0078,22.3382 C17.173,22.3382 15.673,20.8426 15.673,19.0033 C15.673,17.1641 17.1685,15.6685 19.0078,15.6685 C20.8471,15.6685 22.3426,17.1641 22.3426,19.0033 C22.3426,20.8426 20.8426,22.3382 19.0078,22.3382 Z M25.5435,13.6641 C25.5435,14.3292 25.0078,14.8605 24.3471,14.8605 C23.6819,14.8605 23.1506,14.3248 23.1506,13.6641 C23.1506,13.0033 23.6864,12.4676 24.3471,12.4676 C25.0078,12.4676 25.5435,13.0033 25.5435,13.6641 Z M28.9408,14.8783 C28.8649,13.2757 28.4989,11.856 27.3247,10.6864 C26.1551,9.51674 24.7355,9.15067 23.1328,9.07031 C21.481,8.97656 16.5301,8.97656 14.8783,9.07031 C13.2801,9.14621 11.8605,9.51228 10.6864,10.6819 C9.51228,11.8516 9.15067,13.2712 9.07031,14.8739 C8.97656,16.5257 8.97656,21.4766 9.07031,23.1283 C9.14621,24.731 9.51228,26.1507 10.6864,27.3203 C11.8605,28.49 13.2757,28.856 14.8783,28.9364 C16.5301,29.0301 21.481,29.0301 23.1328,28.9364 C24.7355,28.8605 26.1551,28.4944 27.3247,27.3203 C28.4944,26.1507 28.8605,24.731 28.9408,23.1283 C29.0346,21.4766 29.0346,16.5301 28.9408,14.8783 Z M26.8069,24.9007 C26.4587,25.7757 25.7846,26.4498 24.9051,26.8025 C23.5881,27.3248 20.4632,27.2042 19.0078,27.2042 C17.5524,27.2042 14.423,27.3203 13.1105,26.8025 C12.2355,26.4542 11.5614,25.7801 11.2087,24.9007 C10.6864,23.5837 10.8069,20.4587 10.8069,19.0033 C10.8069,17.548 10.6908,14.4185 11.2087,13.106 C11.5569,12.231 12.231,11.5569 13.1105,11.2042 C14.4274,10.6819 17.5524,10.8025 19.0078,10.8025 C20.4632,10.8025 23.5926,10.6864 24.9051,11.2042 C25.7801,11.5525 26.4542,12.2266 26.8069,13.106 C27.3292,14.423 27.2087,17.548 27.2087,19.0033 C27.2087,20.4587 27.3292,23.5882 26.8069,24.9007 Z" id="Shape"></path>
                </g>
            </g>
        </g>
    </g>
</svg>