<?xml version="1.0" encoding="UTF-8"?>
<svg width="40px" height="37px" viewBox="0 0 40 37" version="1.1" xmlns="http://www.w3.org/2000/svg" xmlns:xlink="http://www.w3.org/1999/xlink">
    <title>87E265B4-5B9A-4E0B-A332-031D8047EDFD</title>
    <g id="Designer-Variation-(Website-builder)" stroke="none" stroke-width="1" fill="none" fill-rule="evenodd">
        <g id="1HomeDevs" transform="translate(-1000.000000, -1374.000000)" fill-rule="nonzero">
            <g id="FeaturesSection" transform="translate(120.000000, 1134.000000)">
                <g id="Features" transform="translate(40.000000, 120.000000)">
                    <g id="FeatureCard" transform="translate(800.000000, 80.000000)">
                        <g id="3d" transform="translate(40.000000, 40.000000)">
                            <path d="M39.9999975,21.2380807 C39.9999975,21.0377551 39.8855591,20.8457392 39.7070312,20.745428 L30.2749634,15.449708 L30.2993774,6.11156473 C30.2993774,5.91064553 30.1855469,5.71714579 30.0064087,5.61683461 L20.2740478,0.152247478 C20.0924683,0.0501555893 19.8681641,0.0504523491 19.6865845,0.153137834 L10.0198364,5.61624102 C9.83886719,5.70438429 9.7265625,5.91747146 9.72595219,6.10889374 L9.70153813,15.4425853 L0.319213906,20.7451312 C0.138244609,20.8329777 0.0259399219,21.0463617 0.0253296094,21.2374872 L-2.48196143e-06,30.9006032 C-0.000610351562,31.1044902 0.111389141,31.2935382 0.29296875,31.3953334 L10.0253296,36.8599204 C10.1855469,36.9768512 10.4464722,36.9534058 10.612793,36.8590301 L15.0881958,34.3295848 C15.368042,34.1714017 15.4629516,33.8226868 15.300293,33.5505406 C15.1379395,33.2786913 14.7790527,33.1860963 14.4995117,33.3442794 L10.9066773,35.3745428 L10.9286499,27.0317954 L19.4241333,22.2305088 L19.4021606,30.573553 L16.987915,31.9378449 C16.7080688,32.096028 16.6131592,32.444743 16.7755127,32.7168891 C16.9381714,32.9890352 17.296753,33.0813334 17.5765991,32.9231504 L19.9884033,31.5603424 L29.4265747,36.8596237 C29.5870972,36.9765545 29.8480225,36.9531089 30.0140381,36.8590301 L39.6832275,31.394443 C39.8632813,31.2926479 39.9743652,31.1056773 39.9746704,30.9032742 L39.9832153,27.6443468 C39.9841309,27.3294645 39.72229,27.073938 39.3988038,27.0730477 C39.3984985,27.0730477 39.3978882,27.0730477 39.3972778,27.0730477 C39.0744019,27.0730477 38.8122559,27.3270903 38.8113403,27.6413789 L38.8037109,30.5732562 L30.3082275,35.3745428 L30.3302002,27.0314987 L38.8256836,22.2305088 L38.8180542,25.0184484 C38.8174438,25.3333306 39.0789795,25.5888572 39.4024658,25.5897475 L39.4039917,25.5897475 C39.7271728,25.5897475 39.9893188,25.3357049 39.9899292,25.0214162 L39.9999975,21.2404549 C39.9999975,21.2395646 39.9999975,21.2386743 39.9999975,21.2380807 L39.9999975,21.2380807 Z M19.4573975,11.903202 L19.4354248,20.2521817 L10.8734131,15.4446628 L10.8953858,7.09568305 L19.4573975,11.903202 Z M10.281372,16.432936 L18.843689,21.2404549 L10.3427124,26.0447094 L1.78039547,21.2374872 L10.281372,16.432936 Z M20.5960083,22.2245733 L29.1583252,27.0317954 L29.1363525,35.3807752 L20.5740356,30.573553 L20.5960083,22.2245733 Z M29.7439575,26.0450061 L21.1834717,21.2383775 L29.6847534,16.4341232 L38.2452392,21.2404549 L29.7439575,26.0450061 Z M19.9819946,1.30434261 L28.5443116,6.11186149 L23.9700317,8.69680441 C23.6901855,8.85498747 23.5952759,9.20370252 23.7579345,9.47584861 C23.9202881,9.74799478 24.2791748,9.84029291 24.559021,9.68210986 L29.1247559,7.10191539 L29.1030884,15.4425853 L20.607605,20.2438719 L20.6295777,11.9029052 L22.1810913,11.025924 C22.4609375,10.8680377 22.5558472,10.5193227 22.3931884,10.2471766 C22.2305298,9.9750305 21.8719483,9.88243553 21.5924072,10.0406186 L20.043335,10.9161159 L11.481018,6.10859698 L19.9819946,1.30434261 Z M1.1947632,22.2245733 L9.75677492,27.0317954 L9.73480227,35.3807752 L1.17279055,30.573553 L1.1947632,22.2245733 Z" id="Shape"></path>
                        </g>
                    </g>
                </g>
            </g>
        </g>
    </g>
</svg>