<?xml version="1.0" encoding="UTF-8"?>
<svg width="1440px" height="3844px" viewBox="0 0 1440 3844" version="1.1" xmlns="http://www.w3.org/2000/svg" xmlns:xlink="http://www.w3.org/1999/xlink">
    <title>6022F2F5-093E-449B-B00A-ADAD2BCF98E5</title>
    <defs>
        <linearGradient x1="50%" y1="0%" x2="50%" y2="100%" id="linearGradient-1">
            <stop stop-color="#1968FC" stop-opacity="0" offset="0%"></stop>
            <stop stop-color="#1968FC" stop-opacity="0.05" offset="48.4348606%"></stop>
            <stop stop-color="#1968FC" stop-opacity="0" offset="99.9383246%"></stop>
            <stop stop-color="#1968FC" stop-opacity="0.05" offset="100%"></stop>
        </linearGradient>
        <linearGradient x1="50%" y1="0%" x2="50%" y2="100%" id="linearGradient-2">
            <stop stop-color="#F5F8FF" offset="0%"></stop>
            <stop stop-color="#E8EFFE" offset="100%"></stop>
        </linearGradient>
        <linearGradient x1="50%" y1="0%" x2="50%" y2="100%" id="linearGradient-3">
            <stop stop-color="#FAFBFF" offset="0%"></stop>
            <stop stop-color="#F3F6FF" offset="100%"></stop>
        </linearGradient>
    </defs>
    <g id="Designer-Variation-(Website-builder)" stroke="none" stroke-width="1" fill="none" fill-rule="evenodd">
        <g id="BackgroundDecor">
            <rect id="Rectangle" fill="url(#linearGradient-1)" x="0" y="1200" width="1440" height="2010"></rect>
            <polygon id="Rectangle" fill="url(#linearGradient-2)" points="0 0 1440 0 1440 194.437939 0 1025"></polygon>
            <polygon id="Rectangle" fill="url(#linearGradient-2)" points="0 2410 1440 2410 1440 2614.43794 0 3435"></polygon>
            <polygon id="Rectangle" fill="url(#linearGradient-3)" points="-5.68434189e-14 10 896 527 2 1042"></polygon>
            <polygon id="Rectangle" fill="url(#linearGradient-3)" points="-5.68434189e-14 2401 896 2924 2 3433"></polygon>
            <g id="Decoration" opacity="0.5" transform="translate(685.000000, 1976.500000) scale(-1, 1) translate(-685.000000, -1976.500000) translate(70.000000, 110.000000)" fill="#1968FC">
                <g id="Group-8" transform="translate(468.000000, 84.007430)">
                    <rect id="Rectangle" x="5.76" y="5.76026417" width="5.76" height="5.76026417"></rect>
                    <rect id="Rectangle" opacity="0.2" x="5.76" y="5.76026417" width="8.64" height="8.64039626"></rect>
                    <rect id="Rectangle" opacity="0.1" x="0" y="0" width="11.52" height="11.5205283"></rect>
                </g>
                <g id="Group-8" transform="translate(148.800000, 746.437810)">
                    <rect id="Rectangle" x="5.76" y="5.76026417" width="5.76" height="5.76026417"></rect>
                    <rect id="Rectangle" opacity="0.2" x="5.76" y="5.76026417" width="8.64" height="8.64039626"></rect>
                    <rect id="Rectangle" opacity="0.1" x="0" y="0" width="11.52" height="11.5205283"></rect>
                </g>
                <g id="Group-8" transform="translate(75.600000, 45.605669)">
                    <rect id="Rectangle" x="5.76" y="5.76026417" width="5.76" height="5.76026417"></rect>
                    <rect id="Rectangle" opacity="0.2" x="5.76" y="5.76026417" width="8.64" height="8.64039626"></rect>
                    <rect id="Rectangle" opacity="0.1" x="0" y="0" width="11.52" height="11.5205283"></rect>
                </g>
                <g id="Group-8" transform="translate(560.400000, 0.003577)">
                    <rect id="Rectangle" x="3.84" y="3.84017611" width="3.84" height="3.84017611"></rect>
                    <rect id="Rectangle" opacity="0.2" x="3.84" y="3.84017611" width="5.76" height="5.76026417"></rect>
                    <rect id="Rectangle" opacity="0.1" x="0" y="0" width="7.68" height="7.68035223"></rect>
                </g>
                <g id="Group-8" transform="translate(603.600000, 255.615300)">
                    <rect id="Rectangle" x="3.84" y="3.84017611" width="3.84" height="3.84017611"></rect>
                    <rect id="Rectangle" opacity="0.2" x="3.84" y="3.84017611" width="5.76" height="5.76026417"></rect>
                    <rect id="Rectangle" opacity="0.1" x="0" y="0" width="7.68" height="7.68035223"></rect>
                </g>
                <g id="Group-8" transform="translate(300.000000, 580.830215)">
                    <rect id="Rectangle" x="3.84" y="3.84017611" width="3.84" height="3.84017611"></rect>
                    <rect id="Rectangle" opacity="0.2" x="3.84" y="3.84017611" width="5.76" height="5.76026417"></rect>
                    <rect id="Rectangle" opacity="0.1" x="0" y="0" width="7.68" height="7.68035223"></rect>
                </g>
                <g id="Group-8" transform="translate(1220.400000, 82.807375)">
                    <rect id="Rectangle" x="3.84" y="3.84017611" width="3.84" height="3.84017611"></rect>
                    <rect id="Rectangle" opacity="0.2" x="3.84" y="3.84017611" width="5.76" height="5.76026417"></rect>
                    <rect id="Rectangle" opacity="0.1" x="0" y="0" width="7.68" height="7.68035223"></rect>
                </g>
                <g id="Group-8" transform="translate(842.400000, 122.409191)">
                    <rect id="Rectangle" x="3.84" y="3.84017611" width="3.84" height="3.84017611"></rect>
                    <rect id="Rectangle" opacity="0.2" x="3.84" y="3.84017611" width="5.76" height="5.76026417"></rect>
                    <rect id="Rectangle" opacity="0.1" x="0" y="0" width="7.68" height="7.68035223"></rect>
                </g>
                <g id="Group-8" transform="translate(1220.400000, 1004.006054)">
                    <rect id="Rectangle" x="3.84" y="3.84017611" width="3.84" height="3.84017611"></rect>
                    <rect id="Rectangle" opacity="0.2" x="3.84" y="3.84017611" width="5.76" height="5.76026417"></rect>
                    <rect id="Rectangle" opacity="0.1" x="0" y="0" width="7.68" height="7.68035223"></rect>
                </g>
                <g id="Group-8" transform="translate(1208.400000, 1530.830215)">
                    <rect id="Rectangle" x="3.84" y="3.84017611" width="3.84" height="3.84017611"></rect>
                    <rect id="Rectangle" opacity="0.2" x="3.84" y="3.84017611" width="5.76" height="5.76026417"></rect>
                    <rect id="Rectangle" opacity="0.1" x="0" y="0" width="7.68" height="7.68035223"></rect>
                </g>
                <g id="Group-8" transform="translate(666.000000, 1072.409191)">
                    <rect id="Rectangle" x="3.84" y="3.84017611" width="3.84" height="3.84017611"></rect>
                    <rect id="Rectangle" opacity="0.2" x="3.84" y="3.84017611" width="5.76" height="5.76026417"></rect>
                    <rect id="Rectangle" opacity="0.1" x="0" y="0" width="7.68" height="7.68035223"></rect>
                </g>
                <g id="Group-8" transform="translate(640.800000, 135.609796)">
                    <rect id="Rectangle" x="2.88" y="2.88013209" width="2.88" height="2.88013209"></rect>
                    <rect id="Rectangle" opacity="0.2" x="2.88" y="2.88013209" width="4.32" height="4.32019813"></rect>
                    <rect id="Rectangle" opacity="0.1" x="0" y="0" width="5.76" height="5.76026417"></rect>
                </g>
                <g id="Group-8" transform="translate(1072.400000, 2927.434232)">
                    <rect id="Rectangle" x="5.76" y="5.76026417" width="5.76" height="5.76026417"></rect>
                    <rect id="Rectangle" opacity="0.2" x="5.76" y="5.76026417" width="8.64" height="8.64039626"></rect>
                    <rect id="Rectangle" opacity="0.1" x="0" y="0" width="11.52" height="11.5205283"></rect>
                </g>
                <g id="Group-8" transform="translate(1145.600000, 2226.602091)">
                    <rect id="Rectangle" x="5.76" y="5.76026417" width="5.76" height="5.76026417"></rect>
                    <rect id="Rectangle" opacity="0.2" x="5.76" y="5.76026417" width="8.64" height="8.64039626"></rect>
                    <rect id="Rectangle" opacity="0.1" x="0" y="0" width="11.52" height="11.5205283"></rect>
                </g>
                <g id="Group-8" transform="translate(660.800000, 2181.000000)">
                    <rect id="Rectangle" x="3.84" y="3.84017611" width="3.84" height="3.84017611"></rect>
                    <rect id="Rectangle" opacity="0.2" x="3.84" y="3.84017611" width="5.76" height="5.76026417"></rect>
                    <rect id="Rectangle" opacity="0.1" x="0" y="0" width="7.68" height="7.68035223"></rect>
                </g>
                <g id="Group-8" transform="translate(617.600000, 2436.611723)">
                    <rect id="Rectangle" x="3.84" y="3.84017611" width="3.84" height="3.84017611"></rect>
                    <rect id="Rectangle" opacity="0.2" x="3.84" y="3.84017611" width="5.76" height="5.76026417"></rect>
                    <rect id="Rectangle" opacity="0.1" x="0" y="0" width="7.68" height="7.68035223"></rect>
                </g>
                <g id="Group-8" transform="translate(921.200000, 2761.826637)">
                    <rect id="Rectangle" x="3.84" y="3.84017611" width="3.84" height="3.84017611"></rect>
                    <rect id="Rectangle" opacity="0.2" x="3.84" y="3.84017611" width="5.76" height="5.76026417"></rect>
                    <rect id="Rectangle" opacity="0.1" x="0" y="0" width="7.68" height="7.68035223"></rect>
                </g>
                <g id="Group-8" transform="translate(0.800000, 2263.803797)">
                    <rect id="Rectangle" x="3.84" y="3.84017611" width="3.84" height="3.84017611"></rect>
                    <rect id="Rectangle" opacity="0.2" x="3.84" y="3.84017611" width="5.76" height="5.76026417"></rect>
                    <rect id="Rectangle" opacity="0.1" x="0" y="0" width="7.68" height="7.68035223"></rect>
                </g>
                <g id="Group-8" transform="translate(75.800000, 3718.434232)">
                    <rect id="Rectangle" x="5.76" y="5.76026417" width="5.76" height="5.76026417"></rect>
                    <rect id="Rectangle" opacity="0.2" x="5.76" y="5.76026417" width="8.64" height="8.64039626"></rect>
                    <rect id="Rectangle" opacity="0.1" x="0" y="0" width="11.52" height="11.5205283"></rect>
                </g>
                <g id="Group-8" transform="translate(2.600000, 3017.602091)">
                    <rect id="Rectangle" x="5.76" y="5.76026417" width="5.76" height="5.76026417"></rect>
                    <rect id="Rectangle" opacity="0.2" x="5.76" y="5.76026417" width="8.64" height="8.64039626"></rect>
                    <rect id="Rectangle" opacity="0.1" x="0" y="0" width="11.52" height="11.5205283"></rect>
                </g>
                <g id="Group-8" transform="translate(487.400000, 2972.000000)">
                    <rect id="Rectangle" x="3.84" y="3.84017611" width="3.84" height="3.84017611"></rect>
                    <rect id="Rectangle" opacity="0.2" x="3.84" y="3.84017611" width="5.76" height="5.76026417"></rect>
                    <rect id="Rectangle" opacity="0.1" x="0" y="0" width="7.68" height="7.68035223"></rect>
                </g>
                <g id="Group-8" transform="translate(530.600000, 3227.611723)">
                    <rect id="Rectangle" x="3.84" y="3.84017611" width="3.84" height="3.84017611"></rect>
                    <rect id="Rectangle" opacity="0.2" x="3.84" y="3.84017611" width="5.76" height="5.76026417"></rect>
                    <rect id="Rectangle" opacity="0.1" x="0" y="0" width="7.68" height="7.68035223"></rect>
                </g>
                <g id="Group-8" transform="translate(227.000000, 3552.826637)">
                    <rect id="Rectangle" x="3.84" y="3.84017611" width="3.84" height="3.84017611"></rect>
                    <rect id="Rectangle" opacity="0.2" x="3.84" y="3.84017611" width="5.76" height="5.76026417"></rect>
                    <rect id="Rectangle" opacity="0.1" x="0" y="0" width="7.68" height="7.68035223"></rect>
                </g>
                <g id="Group-8" transform="translate(1147.400000, 3054.803797)">
                    <rect id="Rectangle" x="3.84" y="3.84017611" width="3.84" height="3.84017611"></rect>
                    <rect id="Rectangle" opacity="0.2" x="3.84" y="3.84017611" width="5.76" height="5.76026417"></rect>
                    <rect id="Rectangle" opacity="0.1" x="0" y="0" width="7.68" height="7.68035223"></rect>
                </g>
                <g id="Group-8" transform="translate(378.800000, 2303.405614)">
                    <rect id="Rectangle" x="3.84" y="3.84017611" width="3.84" height="3.84017611"></rect>
                    <rect id="Rectangle" opacity="0.2" x="3.84" y="3.84017611" width="5.76" height="5.76026417"></rect>
                    <rect id="Rectangle" opacity="0.1" x="0" y="0" width="7.68" height="7.68035223"></rect>
                </g>
                <g id="Group-8" transform="translate(0.800000, 3185.002477)">
                    <rect id="Rectangle" x="3.84" y="3.84017611" width="3.84" height="3.84017611"></rect>
                    <rect id="Rectangle" opacity="0.2" x="3.84" y="3.84017611" width="5.76" height="5.76026417"></rect>
                    <rect id="Rectangle" opacity="0.1" x="0" y="0" width="7.68" height="7.68035223"></rect>
                </g>
                <g id="Group-8" transform="translate(12.800000, 3711.826637)">
                    <rect id="Rectangle" x="3.84" y="3.84017611" width="3.84" height="3.84017611"></rect>
                    <rect id="Rectangle" opacity="0.2" x="3.84" y="3.84017611" width="5.76" height="5.76026417"></rect>
                    <rect id="Rectangle" opacity="0.1" x="0" y="0" width="7.68" height="7.68035223"></rect>
                </g>
                <g id="Group-8" transform="translate(555.200000, 3253.405614)">
                    <rect id="Rectangle" x="3.84" y="3.84017611" width="3.84" height="3.84017611"></rect>
                    <rect id="Rectangle" opacity="0.2" x="3.84" y="3.84017611" width="5.76" height="5.76026417"></rect>
                    <rect id="Rectangle" opacity="0.1" x="0" y="0" width="7.68" height="7.68035223"></rect>
                </g>
                <g id="Group-8" transform="translate(580.400000, 2316.606219)">
                    <rect id="Rectangle" x="2.88" y="2.88013209" width="2.88" height="2.88013209"></rect>
                    <rect id="Rectangle" opacity="0.2" x="2.88" y="2.88013209" width="4.32" height="4.32019813"></rect>
                    <rect id="Rectangle" opacity="0.1" x="0" y="0" width="5.76" height="5.76026417"></rect>
                </g>
                <g id="Group-8" transform="translate(832.800000, 240.014584)">
                    <rect id="Rectangle" x="2.88" y="2.88013209" width="2.88" height="2.88013209"></rect>
                    <rect id="Rectangle" opacity="0.2" x="2.88" y="2.88013209" width="4.32" height="4.32019813"></rect>
                    <rect id="Rectangle" opacity="0.1" x="0" y="0" width="5.76" height="5.76026417"></rect>
                </g>
                <g id="Group-8" transform="translate(528.000000, 465.624931)">
                    <rect id="Rectangle" x="2.88" y="2.88013209" width="2.88" height="2.88013209"></rect>
                    <rect id="Rectangle" opacity="0.2" x="2.88" y="2.88013209" width="4.32" height="4.32019813"></rect>
                    <rect id="Rectangle" opacity="0.1" x="0" y="0" width="5.76" height="5.76026417"></rect>
                </g>
                <g id="Group-8" transform="translate(60.000000, 535.228123)">
                    <rect id="Rectangle" x="2.88" y="2.88013209" width="2.88" height="2.88013209"></rect>
                    <rect id="Rectangle" opacity="0.2" x="2.88" y="2.88013209" width="4.32" height="4.32019813"></rect>
                    <rect id="Rectangle" opacity="0.1" x="0" y="0" width="5.76" height="5.76026417"></rect>
                </g>
                <g id="Group-8" transform="translate(1030.800000, 52.805999)">
                    <rect id="Rectangle" x="2.88" y="2.88013209" width="2.88" height="2.88013209"></rect>
                    <rect id="Rectangle" opacity="0.2" x="2.88" y="2.88013209" width="4.32" height="4.32019813"></rect>
                    <rect id="Rectangle" opacity="0.1" x="0" y="0" width="5.76" height="5.76026417"></rect>
                </g>
                <g id="Group-8" transform="translate(352.000000, 1141.000000)">
                    <rect id="Rectangle" x="5.76" y="5.76026417" width="5.76" height="5.76026417"></rect>
                    <rect id="Rectangle" opacity="0.2" x="5.76" y="5.76026417" width="8.64" height="8.64039626"></rect>
                    <rect id="Rectangle" opacity="0.1" x="0" y="0" width="11.52" height="11.5205283"></rect>
                </g>
                <g id="Group-8" transform="translate(144.000000, 1113.000000)">
                    <rect id="Rectangle" x="4" y="4" width="4" height="4"></rect>
                    <rect id="Rectangle" opacity="0.2" x="4" y="4" width="6" height="6"></rect>
                    <rect id="Rectangle" opacity="0.1" x="0" y="0" width="8" height="8"></rect>
                </g>
                <g id="Group-8" transform="translate(462.000000, 961.000000)">
                    <rect id="Rectangle" x="5.76" y="5.76026417" width="5.76" height="5.76026417"></rect>
                    <rect id="Rectangle" opacity="0.2" x="5.76" y="5.76026417" width="8.64" height="8.64039626"></rect>
                    <rect id="Rectangle" opacity="0.1" x="0" y="0" width="11.52" height="11.5205283"></rect>
                </g>
            </g>
        </g>
    </g>
</svg>