<?xml version="1.0" encoding="UTF-8"?>
<svg width="40px" height="40px" viewBox="0 0 40 40" version="1.1" xmlns="http://www.w3.org/2000/svg" xmlns:xlink="http://www.w3.org/1999/xlink">
    <title>4080444E-910B-48DE-B840-EF13DE1E2840</title>
    <g id="Designer-Variation-(Website-builder)" stroke="none" stroke-width="1" fill="none" fill-rule="evenodd">
        <g id="1HomeDevs" transform="translate(-180.000000, -2564.000000)" fill="#FFFFFF" fill-rule="nonzero">
            <g id="WhatCanYouDoSection" transform="translate(120.000000, 2314.000000)">
                <g id="WhatCanYouDoCard" transform="translate(40.000000, 230.000000)">
                    <g id="Group-20" transform="translate(20.000000, 20.000000)">
                        <path d="M38,0 L2,0 C0.8954305,0 0,0.8954305 0,2 L0,38 C0,39.1045695 0.8954305,40 2,40 L38,40 C39.1045695,40 40,39.1045695 40,38 L40,2 C40,0.8954305 39.1045695,0 38,0 Z M38.6666667,38 C38.6666667,38.3681898 38.3681898,38.6666667 38,38.6666667 L2,38.6666667 C1.63181017,38.6666667 1.33333333,38.3681898 1.33333333,38 L1.33333333,6.66666667 L38.6666667,6.66666667 L38.6666667,38 Z M1.33333333,5.33333333 L1.33333333,2 C1.33333333,1.63181017 1.63181017,1.33333333 2,1.33333333 L38,1.33333333 C38.3681898,1.33333333 38.6666667,1.63181017 38.6666667,2 L38.6666667,5.33333333 L1.33333333,5.33333333 Z" id="Shape"></path>
                        <path d="M37.3333333,8 L2.66666667,8 L2.66666667,17.3333333 L37.3333333,17.3333333 L37.3333333,8 Z M36,16 L4,16 L4,9.33333333 L36,9.33333333 L36,16 Z" id="Shape"></path>
                        <path d="M14.6666667,18.6666667 L2.66666667,18.6666667 L2.66666667,37.3333333 L14.6666667,37.3333333 L14.6666667,18.6666667 Z M13.3333333,36 L4,36 L4,20 L13.3333333,20 L13.3333333,36 Z" id="Shape"></path>
                        <path d="M37.4,18.6666667 L16,18.6666667 L16,37.3333333 L37.4,37.3333333 L37.4,18.6666667 Z M36.0333333,36 L17.3333333,36 L17.3333333,20 L36.0333333,20 L36.0333333,36 Z" id="Shape"></path>
                        <rect id="Rectangle" x="2.66666667" y="2.66666667" width="1.33333333" height="1.33333333"></rect>
                        <rect id="Rectangle" x="5.33333333" y="2.66666667" width="1.33333333" height="1.33333333"></rect>
                        <rect id="Rectangle" x="8" y="2.66666667" width="1.33333333" height="1.33333333"></rect>
                    </g>
                </g>
            </g>
        </g>
    </g>
</svg>