<?xml version="1.0" encoding="UTF-8"?>
<svg width="40px" height="40px" viewBox="0 0 40 40" version="1.1" xmlns="http://www.w3.org/2000/svg" xmlns:xlink="http://www.w3.org/1999/xlink">
    <title>245061FE-D176-475D-B9B4-D92B2D919F38</title>
    <g id="Designer-Variation-(Website-builder)" stroke="none" stroke-width="1" fill="none" fill-rule="evenodd">
        <g id="1HomeDevs" transform="translate(-180.000000, -2444.000000)" fill="#FFFFFF" fill-rule="nonzero">
            <g id="WhatCanYouDoSection" transform="translate(120.000000, 2314.000000)">
                <g id="WhatCanYouDoCard" transform="translate(40.000000, 110.000000)">
                    <g id="responsive-design" transform="translate(20.000000, 20.000000)">
                        <path d="M9.94140625,21.2915039 L2.50488281,21.2915039 L2.50488281,28.7280273 L9.94140625,28.7280273 L9.94140625,21.2915039 Z M8.76708984,27.5537109 L3.67919922,27.5537109 L3.67919922,22.4658203 L8.76708984,22.4658203 L8.76708984,27.5537109 Z" id="Shape"></path>
                        <polygon id="Path" points="1.17431641 7.43652344 0 7.43652344 0 31.2329102 21.2915039 31.2329102 21.2915039 30.0585938 1.17431641 30.0585938"></polygon>
                        <path d="M30.0585938,7.43652344 L31.2329102,7.43652344 L31.2329102,0 L0,0 L0,6.18408203 L30.0585938,6.18408203 L30.0585938,7.43652344 Z M1.17431641,5.00976562 L1.17431641,1.17431641 L30.0585938,1.17431641 L30.0585938,5.00976562 L1.17431641,5.00976562 Z" id="Shape"></path>
                        <polygon id="Path" points="3.13110352 2.50488281 4.38354492 2.50488281 4.38354492 3.67919922 3.13110352 3.67919922"></polygon>
                        <polygon id="Path" points="5.63598633 2.50488281 6.88842773 2.50488281 6.88842773 3.67919922 5.63598633 3.67919922"></polygon>
                        <polygon id="Path" points="8.14086914 2.50488281 9.39331055 2.50488281 9.39331055 3.67919922 8.14086914 3.67919922"></polygon>
                        <polygon id="Path" points="2.50488281 16.2036133 21.2915039 16.2036133 21.2915039 15.0292969 3.67919922 15.0292969 3.67919922 8.68896484 21.2915039 8.68896484 21.2915039 7.51464844 2.50488281 7.51464844"></polygon>
                        <polygon id="Path" points="2.50488281 18.1604004 21.2915039 18.1604004 21.2915039 19.3347168 2.50488281 19.3347168"></polygon>
                        <polygon id="Path" points="11.2719727 24.4226074 21.2915039 24.4226074 21.2915039 25.5969238 11.2719727 25.5969238"></polygon>
                        <polygon id="Path" points="11.2719727 21.2915039 21.2915039 21.2915039 21.2915039 22.4658203 11.2719727 22.4658203"></polygon>
                        <polygon id="Path" points="11.2719727 27.5537109 21.2915039 27.5537109 21.2915039 28.7280273 11.2719727 28.7280273"></polygon>
                        <path d="M32.4853516,30.0585938 L25.0488281,30.0585938 L25.0488281,37.4951172 L32.4853516,37.4951172 L32.4853516,30.0585938 Z M31.3110352,36.3208008 L26.2231445,36.3208008 L26.2231445,31.2329102 L31.3110352,31.2329102 L31.3110352,36.3208008 Z" id="Shape"></path>
                        <path d="M22.5439453,8.76708984 L22.5439453,40 L40,40 L40,8.76708984 L22.5439453,8.76708984 Z M38.8256836,38.8256836 L23.7182617,38.8256836 L23.7182617,14.9511719 L38.8256836,14.9511719 L38.8256836,38.8256836 Z M38.8256836,13.7768555 L23.7182617,13.7768555 L23.7182617,9.94140625 L38.8256836,9.94140625 L38.8256836,13.7768555 Z" id="Shape"></path>
                        <polygon id="Path" points="25.6750488 11.2719727 26.9274902 11.2719727 26.9274902 12.4462891 25.6750488 12.4462891"></polygon>
                        <polygon id="Path" points="28.1799316 11.2719727 29.432373 11.2719727 29.432373 12.4462891 28.1799316 12.4462891"></polygon>
                        <polygon id="Path" points="30.6848145 11.2719727 31.9372559 11.2719727 31.9372559 12.4462891 30.6848145 12.4462891"></polygon>
                        <path d="M37.4951172,16.2817383 L25.0488281,16.2817383 L25.0488281,24.9707031 L37.4951172,24.9707031 L37.4951172,16.2817383 Z M36.3208008,23.7963867 L26.2231445,23.7963867 L26.2231445,17.4560547 L36.3208008,17.4560547 L36.3208008,23.7963867 Z" id="Shape"></path>
                        <polygon id="Path" points="25.0488281 26.9274902 37.5732422 26.9274902 37.5732422 28.1018066 25.0488281 28.1018066"></polygon>
                        <polygon id="Path" points="33.815918 33.1896973 37.5732422 33.1896973 37.5732422 34.3640137 33.815918 34.3640137"></polygon>
                        <polygon id="Path" points="33.815918 30.0585938 37.5732422 30.0585938 37.5732422 31.2329102 33.815918 31.2329102"></polygon>
                        <polygon id="Path" points="33.815918 36.3208008 37.5732422 36.3208008 37.5732422 37.4951172 33.815918 37.4951172"></polygon>
                    </g>
                </g>
            </g>
        </g>
    </g>
</svg>