<?xml version="1.0" encoding="UTF-8"?>
<svg width="40px" height="40px" viewBox="0 0 40 40" version="1.1" xmlns="http://www.w3.org/2000/svg" xmlns:xlink="http://www.w3.org/1999/xlink">
    <title>E823ECBB-3769-4011-9F5A-E61D336BC41D</title>
    <g id="Designer-Variation-(Website-builder)" stroke="none" stroke-width="1" fill="none" fill-rule="evenodd">
        <g id="1HomeDevs" transform="translate(-200.000000, -1294.000000)" fill="#FFFFFF" fill-rule="nonzero">
            <g id="FeaturesSection" transform="translate(120.000000, 1134.000000)">
                <g id="Features" transform="translate(40.000000, 120.000000)">
                    <g id="IconSolidPixelPerfect" transform="translate(0.000000, -0.000010)">
                        <path d="M79.4408594,45.6724316 L74.3270313,40.5586035 C73.5821875,39.8137598 72.3701563,39.8138379 71.6253125,40.5586035 L61.9969531,50.1868848 C61.7558594,50.4280566 61.7558594,50.8188379 61.9969531,51.0600098 C62.2380469,51.3010254 62.6289063,51.3010254 62.87,51.0600098 L72.4982813,41.4317285 C72.6259375,41.3040723 72.795625,41.2338379 72.9760938,41.2338379 C73.1565625,41.2338379 73.32625,41.3040723 73.4539063,41.4317285 L78.5678125,46.5455566 C78.6953906,46.6731348 78.7657031,46.8428223 78.7657031,47.0233691 C78.7657031,47.2038379 78.6953906,47.3735254 78.5678125,47.5011035 L77.3128125,48.7561035 L74.0246094,45.4679785 C73.7835156,45.2269629 73.3926563,45.2269629 73.1515625,45.4679785 C72.9104688,45.7091504 72.9104688,46.0999316 73.1515625,46.3411035 L76.4396875,49.6292285 L75.0058594,51.0630566 L73.5607031,49.6179004 C73.3196094,49.3768848 72.92875,49.3768848 72.6876563,49.6179004 C72.4465625,49.8590723 72.4465625,50.2498535 72.6876563,50.4910254 L74.1328125,51.9361035 L72.6989844,53.3699316 L71.2538281,51.9247754 C71.0127344,51.6837598 70.621875,51.6837598 70.3807813,51.9247754 C70.1396875,52.1659473 70.1396875,52.5567285 70.3807813,52.7979004 L71.8259375,54.2429785 L70.3921094,55.6768066 L67.1039063,52.3885254 C66.8628906,52.1475879 66.4719531,52.1474316 66.2308594,52.3885254 C65.9897656,52.6296973 65.9897656,53.0204785 66.2308594,53.2616504 L69.5190625,56.5498535 L68.0852344,57.9836816 L66.6400781,56.5385254 C66.3989844,56.2975098 66.008125,56.2975098 65.7670313,56.5385254 C65.5259375,56.7796973 65.5259375,57.1704785 65.7670313,57.4116504 L67.2121094,58.8567285 L65.9991406,60.0696973 L59.9296875,54.0002441 L61.0585938,52.8712598 C61.2996875,52.6300879 61.2996875,52.2393066 61.0585938,51.9981348 C60.8175,51.7571191 60.4266406,51.7571191 60.1855469,51.9981348 L59.0565625,53.1271191 L47.6684375,41.7393848 C46.8764063,40.9473535 45.8233594,40.5111816 44.7032813,40.5111816 C43.5832031,40.5112598 42.5301563,40.9474316 41.7382031,41.7394629 C40.9460938,42.5314941 40.5099219,43.5844629 40.5099219,44.7046191 C40.5099219,45.8246973 40.9460938,46.8777441 41.738125,47.6697754 L53.1260156,59.057666 L40.5591406,71.6247754 C39.8142969,72.3696973 39.8142969,73.5816504 40.5591406,74.3265723 L45.6729688,79.4404785 C46.03375,79.8012598 46.5135156,80 47.0238281,80 C47.5341406,80 48.0139063,79.8012598 48.3746875,79.4404785 L60.9417188,66.8734473 L61.8367969,67.7685254 C62.0778906,68.009541 62.46875,68.009541 62.7098438,67.7685254 C62.9509375,67.5273535 62.9509375,67.1365723 62.7098438,66.8954004 L61.474375,65.6599316 C61.4503906,65.6219629 61.4222656,65.5858691 61.3892188,65.5528223 C61.3561719,65.5197754 61.3200781,65.4916504 61.2821875,65.467666 L47.9053906,52.0908691 L49.5609375,50.4353223 L50.5845313,51.458916 C50.7050781,51.5793848 50.8630469,51.6396973 51.0210938,51.6396973 C51.1791406,51.6396973 51.3371094,51.5793848 51.4576563,51.458916 C51.69875,51.2177441 51.69875,50.8269629 51.4576563,50.585791 L50.4341406,49.5622754 L52.0896875,47.9067285 L58.6192969,54.4363379 C58.6195313,54.4366504 58.6197656,54.4368848 58.6200781,54.4371973 C58.6203906,54.4375098 58.620625,54.437666 58.6209375,54.4379785 L65.5022656,61.3193066 C65.5192969,61.3418066 65.5374219,61.3638379 65.5579688,61.3843848 C65.5785156,61.4049316 65.6004688,61.4230566 65.6229688,61.4400879 L74.7845313,70.6016504 L73.1289844,72.2571973 L63.8855469,63.0137598 C63.88,63.0077441 63.875,63.001416 63.8691406,62.9956348 L60.1830469,59.3094629 C60.1769531,59.3033691 60.1703125,59.2980566 60.1640625,59.2922754 L53.6528906,52.7811816 C53.4117969,52.540166 53.0209375,52.540166 52.7798438,52.7811816 C52.53875,53.0223535 52.53875,53.4131348 52.7798438,53.6543066 L72.2557031,73.130166 L70.6000781,74.7857129 L64.7332031,68.9187598 C64.4921094,68.6777441 64.10125,68.6777441 63.8601563,68.9187598 C63.6190625,69.1599316 63.6190625,69.5507129 63.8601563,69.7918848 L70.1635938,76.0953223 C70.2235156,76.1552441 70.2977344,76.2036035 70.3767188,76.2342285 L77.8359375,79.1302441 C77.9535938,79.1758691 78.07625,79.1980566 78.1979688,79.1980566 C78.4590625,79.1980566 78.7154688,79.0958691 78.9067969,78.9043848 C79.1873438,78.6236816 79.275625,78.2033691 79.1317969,77.8335254 L76.2327344,70.3777441 C76.2021094,70.2989941 76.15375,70.2246191 76.0939063,70.1648535 L66.8721094,60.9430566 L79.4408594,48.3742285 C80.1857813,47.6293066 80.1857813,46.4173535 79.4408594,45.6724316 Z M60.0689063,66.0004004 L58.8574219,67.2115723 L57.4122656,65.766416 C57.1711719,65.5254004 56.7803125,65.5254004 56.5392188,65.766416 C56.298125,66.0075879 56.298125,66.3983691 56.5392188,66.639541 L57.984375,68.0846973 L56.5505469,69.5185254 L53.2623438,66.2303223 C53.02125,65.9893066 52.6303906,65.9893066 52.3892969,66.2303223 C52.1482031,66.4714941 52.1482031,66.8622754 52.3892969,67.1034473 L55.6775,70.3916504 L54.2436719,71.8254785 L52.7985156,70.3803223 C52.5574219,70.1393066 52.1665625,70.1393066 51.9254688,70.3803223 C51.684375,70.6214941 51.684375,71.0122754 51.9254688,71.2534473 L53.370625,72.6985254 L51.9367969,74.1323535 L50.4916406,72.6871973 C50.2505469,72.4461816 49.8596875,72.4461816 49.6185938,72.6871973 C49.3775,72.9283691 49.3775,73.3191504 49.6185938,73.5603223 L51.06375,75.0054785 L49.6299219,76.4393066 L46.3417188,73.1511035 C46.100625,72.9100879 45.7097656,72.9100879 45.4686719,73.1511035 C45.2275781,73.3922754 45.2275781,73.7830566 45.4686719,74.0242285 L48.756875,77.3123535 L47.501875,78.5673535 C47.3742188,78.6950098 47.2045313,78.7653223 47.0240625,78.7653223 C46.8435938,78.7653223 46.6739063,78.6950098 46.54625,78.5673535 L41.4324219,73.4534473 C41.1689844,73.1900098 41.1689844,72.7613379 41.4324219,72.4979004 L53.999375,59.9308691 L60.0689063,66.0004004 Z M42.6111719,46.7967285 C41.4575781,45.6431348 41.4575781,43.7661035 42.6111719,42.6125098 C43.7647656,41.4588379 45.6417969,41.4588379 46.7953906,42.6125098 L48.7466406,44.5637598 L44.5624219,48.7479785 L42.6111719,46.7967285 Z M49.1248438,49.1252441 C49.1246875,49.1254004 49.1245313,49.1254785 49.1244531,49.1256348 C49.1242969,49.125791 49.1242188,49.1259473 49.1240625,49.1260254 L47.0323438,51.2177441 L45.4355469,49.6209473 L49.6197656,45.4367285 L51.2165625,47.0335254 L49.1248438,49.1252441 Z M77.7892969,77.7875879 L71.7061719,75.4259473 L75.425,71.7071191 L77.7892969,77.7875879 Z" id="Shape"></path>
                    </g>
                </g>
            </g>
        </g>
    </g>
</svg>