<?xml version="1.0" encoding="UTF-8"?>
<svg width="40px" height="40px" viewBox="0 0 40 40" version="1.1" xmlns="http://www.w3.org/2000/svg" xmlns:xlink="http://www.w3.org/1999/xlink">
    <title>5B5886C1-D993-443A-8C2B-BEF239423F37</title>
    <g id="Designer-Variation-(Website-builder)" stroke="none" stroke-width="1" fill="none" fill-rule="evenodd">
        <g id="1HomeDevs" transform="translate(-760.000000, -2564.000000)" fill="#FFFFFF" fill-rule="nonzero">
            <g id="WhatCanYouDoSection" transform="translate(120.000000, 2314.000000)">
                <g id="WhatCanYouDoCard" transform="translate(620.000000, 230.000000)">
                    <g id="web-design-(1)" transform="translate(20.000000, 20.000000)">
                        <path d="M0.650059806,22.989339 L13.6512559,22.989339 C14.0104139,22.989339 14.3013157,22.6911647 14.3013157,22.3230277 L14.3013157,14.3272921 C14.3013157,13.9591551 14.0104139,13.6609808 13.6512559,13.6609808 L0.650059806,13.6609808 C0.290901784,13.6609808 0,13.9591551 0,14.3272921 L0,22.3230277 C0,22.6911647 0.290901784,22.989339 0.650059806,22.989339 Z M1.30011961,14.9936034 L13.0011961,14.9936034 L13.0011961,21.6567164 L1.30011961,21.6567164 L1.30011961,14.9936034 Z" id="Shape"></path>
                        <path d="M4.09082636,16.5214552 L2.79070675,17.8540778 C2.53702092,18.114439 2.53702092,18.5358809 2.79070675,18.796242 L4.09082636,20.1288646 L5.01001092,19.1867004 L4.16948359,18.3251599 L5.01001092,17.4636194 L4.09082636,16.5214552 Z" id="Path"></path>
                        <path d="M10.2104894,16.5214552 L9.2913048,17.4636194 L10.1318321,18.3251599 L9.2913048,19.1867004 L10.2104894,20.1288646 L11.510609,18.796242 C11.7642948,18.5358809 11.7642948,18.114439 11.510609,17.8540778 L10.2104894,16.5214552 Z" id="Path"></path>
                        <polygon id="Path" points="5.88336625 20.1133729 7.18413596 16.1150053 8.41794947 16.5367804 7.11652974 20.5348148"></polygon>
                        <path d="M39.3291383,0.997867804 L17.2271049,0.997867804 C16.8679469,0.997867804 16.5770451,1.29604213 16.5770451,1.6641791 L16.5770451,14.9904051 C16.5770451,15.3585421 16.8679469,15.6567164 17.2271049,15.6567164 L39.3291383,15.6567164 C39.6882963,15.6567164 39.9791981,15.3585421 39.9791981,14.9904051 L39.9791981,1.6641791 C39.9791981,1.29604213 39.6882963,0.997867804 39.3291383,0.997867804 Z M38.6790785,14.3240938 L17.8771647,14.3240938 L17.8771647,12.7022921 L23.7147018,9.11220682 L29.4058128,12.8848614 C29.6013183,13.0139592 29.8494786,13.0264525 30.0558727,12.9168443 L34.7621431,10.418177 L38.6790785,12.7116205 L38.6790785,14.3240938 Z M38.6790785,11.1771055 L35.1037495,9.0815565 C34.912307,8.96894989 34.6781229,8.96445228 34.4821299,9.06823028 L29.7973114,11.5557369 L24.0832857,7.76759062 C23.8749415,7.62966418 23.6080919,7.62516657 23.3953599,7.75626333 L17.8771647,11.1484542 L17.8771647,2.33049041 L38.6790785,2.33049041 L38.6790785,11.1771055 Z" id="Shape"></path>
                        <path d="M30.8778408,8.32729211 C32.1344064,8.32729211 33.1530501,7.2831823 33.1530501,5.99520256 C33.1530501,4.70722281 32.1344064,3.66311301 30.8778408,3.66311301 C29.6212752,3.66311301 28.6026314,4.70722281 28.6026314,5.99520256 C28.6026314,7.2831823 29.6212752,8.32729211 30.8778408,8.32729211 Z M30.8778408,4.99573561 C31.4164153,4.99573561 31.8529305,5.44316367 31.8529305,5.99520256 C31.8529305,6.54724145 31.4164153,6.99466951 30.8778408,6.99466951 C30.3392662,6.99466951 29.9027511,6.54724145 29.9027511,5.99520256 C29.9027511,5.44316367 30.3392662,4.99573561 30.8778408,4.99573561 Z" id="Shape"></path>
                        <path d="M2.59815903,27.9882729 L2.59815903,35.9840085 C2.59815903,36.3521455 2.88906081,36.6503198 3.24821884,36.6503198 L19.499714,36.6503198 C19.858872,36.6503198 20.1497738,36.3521455 20.1497738,35.9840085 L20.1497738,27.9882729 C20.1497738,27.6201359 19.858872,27.3219616 19.499714,27.3219616 L3.24821884,27.3219616 C2.88906081,27.3219616 2.59815903,27.6201359 2.59815903,27.9882729 Z M3.89827864,28.6545842 L18.8496542,28.6545842 L18.8496542,35.3176972 L3.89827864,35.3176972 L3.89827864,28.6545842 Z" id="Shape"></path>
                        <polygon id="Path" points="5.19839825 29.9872068 7.79863747 29.9872068 7.79863747 31.3198294 5.19839825 31.3198294"></polygon>
                        <polygon id="Path" points="9.09875709 29.9872068 14.9492953 29.9872068 14.9492953 31.3198294 9.09875709 31.3198294"></polygon>
                        <polygon id="Path" points="16.2494149 29.9872068 17.5495346 29.9872068 17.5495346 31.3198294 16.2494149 31.3198294"></polygon>
                        <polygon id="Path" points="5.19839825 32.652452 12.9991159 32.652452 12.9991159 33.9850746 5.19839825 33.9850746"></polygon>
                        <polygon id="Path" points="14.2992355 32.652452 17.5495346 32.652452 17.5495346 33.9850746 14.2992355 33.9850746"></polygon>
                        <path d="M39.3291383,29.9872068 L26.978002,29.9872068 C26.618844,29.9872068 26.3279422,30.2853812 26.3279422,30.6535181 L26.3279422,38.6492537 C26.3279422,39.0173907 26.618844,39.315565 26.978002,39.315565 L39.3291383,39.315565 C39.6882963,39.315565 39.9791981,39.0173907 39.9791981,38.6492537 L39.9791981,30.6535181 C39.9791981,30.2853812 39.6882963,29.9872068 39.3291383,29.9872068 Z M38.6790785,37.9829424 L27.6280618,37.9829424 L27.6280618,31.3198294 L38.6790785,31.3198294 L38.6790785,37.9829424 Z" id="Shape"></path>
                        <polygon id="Path" points="28.9281814 32.652452 30.228301 32.652452 30.228301 33.9850746 28.9281814 33.9850746"></polygon>
                        <polygon id="Path" points="28.9281814 35.3176972 30.228301 35.3176972 30.228301 36.6503198 28.9281814 36.6503198"></polygon>
                        <polygon id="Path" points="31.5284206 32.652452 37.3789589 32.652452 37.3789589 33.9850746 31.5284206 33.9850746"></polygon>
                        <polygon id="Path" points="31.5284206 35.3176972 37.3789589 35.3176972 37.3789589 36.6503198 31.5284206 36.6503198"></polygon>
                    </g>
                </g>
            </g>
        </g>
    </g>
</svg>